/* XPM */
static const char *meaqua_xpm[] = {
/* columns rows colors chars-per-pixel */
"36 36 234 2 ",
"   c #02002A",
".  c #020036",
"X  c #0A033B",
"o  c #140F3E",
"O  c #3F1F3C",
"+  c #050640",
"@  c #100B43",
"#  c #0D1347",
"$  c #181748",
"%  c #1A1B56",
"&  c #27164D",
"*  c #1A224F",
"=  c #1D2654",
"-  c #292549",
";  c #372A49",
":  c #262855",
">  c #322856",
",  c #27335B",
"<  c #383559",
"1  c #120774",
"2  c #2C1871",
"3  c #383B66",
"4  c #3B3C65",
"5  c #303569",
"6  c #442E50",
"7  c #463859",
"8  c #6D3B56",
"9  c #453C68",
"0  c #593D66",
"q  c #4A307C",
"w  c #3A4668",
"e  c #3B4F70",
"r  c #4E425E",
"t  c #494565",
"y  c #45466C",
"u  c #534863",
"i  c #544A64",
"p  c #5B4E65",
"a  c #48506F",
"s  c #5C5069",
"d  c #444C71",
"f  c #4B4D72",
"g  c #524B79",
"h  c #4B5272",
"j  c #555779",
"k  c #6D4E70",
"l  c #835568",
"z  c #875B76",
"x  c #2A158C",
"c  c #271796",
"v  c #1C2084",
"b  c #34308D",
"n  c #392794",
"m  c #3A2B9A",
"M  c #3D3698",
"N  c #3829A3",
"B  c #3834A0",
"V  c #473297",
"C  c #453BA6",
"Z  c #503BA7",
"A  c #3668A7",
"S  c #5A5586",
"D  c #694794",
"F  c #6F5799",
"G  c #5A688E",
"H  c #686884",
"J  c #736588",
"K  c #716B94",
"L  c #4943AB",
"P  c #5649AC",
"I  c #4C47B4",
"U  c #564CB2",
"Y  c #5757B7",
"T  c #654AAC",
"R  c #7855A8",
"E  c #6A57B7",
"W  c #755DBC",
"Q  c #5170B2",
"!  c #6A63BE",
"~  c #7868BD",
"^  c #5E5CC1",
"/  c #675EC0",
"(  c #557DC4",
")  c #6967C2",
"_  c #7772CA",
"`  c #88779A",
"'  c #987494",
"]  c #B86E9D",
"[  c #8655A3",
"{  c #966FAD",
"}  c #8E7DA6",
"|  c #8665B5",
" . c #8B75B8",
".. c #B074AA",
"X. c #A77AB7",
"o. c #BD44C4",
"O. c #8979C6",
"+. c #D274D5",
"@. c #E271DD",
"#. c #E26EE1",
"$. c #6B8CB3",
"%. c #559CD6",
"&. c #668ACB",
"*. c #6AA6D9",
"=. c #7BA6D8",
"-. c #6DB4DF",
";. c #76B1DB",
":. c #66B8E2",
">. c #75BCE4",
",. c #75C8E8",
"<. c #76CFEC",
"1. c #7CD6F4",
"2. c #78D9F6",
"3. c #7AE5F9",
"4. c #8D8298",
"5. c #98869C",
"6. c #AD8A95",
"7. c #8D89A4",
"8. c #9994AA",
"9. c #AC8EAF",
"0. c #A898AC",
"q. c #A597B6",
"w. c #B9A1AE",
"e. c #ADA4BD",
"r. c #D09DB7",
"t. c #E094AC",
"y. c #C5AABC",
"u. c #DAABBA",
"i. c #EAA9B4",
"p. c #E6B2B8",
"a. c #F3B6B7",
"s. c #FAC4BD",
"d. c #8C85CA",
"f. c #9685C7",
"g. c #948CCC",
"h. c #8792CE",
"j. c #9C96CE",
"k. c #9294D4",
"l. c #A993C6",
"z. c #B89AC7",
"x. c #B59AD5",
"c. c #82A7D8",
"v. c #8AB8DD",
"b. c #98B7DD",
"n. c #B8AAC5",
"m. c #B7B3C6",
"M. c #ACAED4",
"N. c #BBA7D4",
"B. c #BCB9D8",
"V. c #8BBDE7",
"C. c #C49BC9",
"Z. c #D091D4",
"A. c #E581D9",
"S. c #C6A4C7",
"D. c #D7AAC8",
"F. c #C5B1CB",
"G. c #D7B4CA",
"H. c #CCAED9",
"J. c #D6A9D9",
"K. c #CAB7DA",
"L. c #D6B8D7",
"P. c #E7B7C9",
"I. c #EFB0CB",
"U. c #E6BCD5",
"Y. c #CC9DE2",
"T. c #F090E7",
"R. c #D7B9E4",
"E. c #F3AFE9",
"W. c #94C4E3",
"Q. c #9BD5EE",
"!. c #86D9F5",
"~. c #8ADBF6",
"^. c #B8CAE3",
"/. c #A9D4E8",
"(. c #B9DBEC",
"). c #8AE7FD",
"_. c #90EBFF",
"`. c #99FAFF",
"'. c #A6E3F6",
"]. c #BAEBF5",
"[. c #AEF6FF",
"{. c #D8C2C9",
"}. c #D9C5D9",
"|. c #D2CBD9",
" X c #E9C8CD",
".X c #F7C9CB",
"XX c #FED4CC",
"oX c #F8D9CE",
"OX c #E7C8D6",
"+X c #E4CDDC",
"@X c #F6C5D8",
"#X c #E9D6DB",
"$X c #F8DAD6",
"%X c #FAE4D9",
"&X c #FEEBDB",
"*X c #C0C8E4",
"=X c #DACAE5",
"-X c #D9D9E9",
";X c #E3CDE3",
":X c #E9CAE8",
">X c #F6C8E6",
",X c #E3D3E5",
"<X c #E9D7E6",
"1X c #EBDCEB",
"2X c #F5DCE8",
"3X c #E4CCF0",
"4X c #ECDEF3",
"5X c #F4D9F1",
"6X c #C8E5F4",
"7X c #D8EDF5",
"8X c #D7F5FC",
"9X c #E4E1EC",
"0X c #EDE3EC",
"qX c #F3E2E3",
"wX c #F8E7E5",
"eX c #FCECE6",
"rX c #F1E4ED",
"tX c #F4EAEE",
"yX c #FBECED",
"uX c #FFF3E6",
"iX c #FFFBE6",
"pX c #FFF4EC",
"aX c #FFFCEC",
"sX c #E8E8F2",
"dX c #F8E3F5",
"fX c #F4EBF2",
"gX c #FBEEF3",
"hX c #E3F5F6",
"jX c #F5F1F4",
"kX c #FDF5F3",
"lX c #FFFBF4",
"zX c #FEF5FB",
"xX c #F3F8FA",
"cX c #FFFEFD",
/* pixels */
"sX^.v.^.=X^.hX].Q C.cXcXcX<XP..X$XqXuXpXuXaXU.I.aXaXaXaXeX>X@XI.I.E.x.v ",
"^.v.(././.9X8X:.% t 8.m.1X<XOX$XoXa.] H..Xp.D...S.lXwX&X>XI.Z.A.3XxXh.N ",
"cXcXfX-X1XsX[.A & w = X q.zX0XkX&XXXD.3X%Xa..XX.c ' i.I.@Xs.[ =XcXB.I I ",
"M.Q %.>.8XxX,.w r h h % 7.dX,XcXzXP.9.2XaXpX%XP R i.XXwXaXiXD E cXB.Y C ",
",X^.^.=Xv.1.Q 3 h a h * 8.zXS.zX#X8 l $XeX-XO.R &XaXaXlXiX#XR c jXxXI U ",
"=XaXaXeXS.V.$.< a a h : m.cXdXOXk &  XgXq.d.f.#XlXuXOXx.d.W I c  .cXT f.",
"OX%XiXlXaXcXB.> y h w g gXcXcX5.o q.cXhXc.j.OXlX+Xl.O./ ) ^ ) ) Z sX9X4X",
".X.XoXXXP.=XS # d h $ 8.cXlXw.* j cXcX7X*.X..XN.O.O.g.g.g.g.k.M.f. .cXcX",
"L.=XG.G.S.N.} y : < @ q.cXyX0 @ G.cXcXlXb.Q ~ d.l.j.d.d.j.x.}.{. X' z.3X",
"x.N.K.cXcX,XzXcXl.@ % m.cXcXN.' yXcXlX9X,.=.*.-.;.=.g.K.F. XaXaXiXu.X.Q.",
"K.0XcXcXcXcXcXcXcX3 g cXcXcXgXeXqXzXaX/.*.OXhX].7XjXlXcX X%XpXpXpXXXx.3.",
"cXcXcXcXcXcXcXcXcXm.} cXlXcXqXaX.X2X6X<./.lXcXlXlXcXcXL.t.uXpXpXaXi.h.2.",
"cXcXcXcXqX9.0.6.5.' 9.zXxXzX>XuX&Xt.v.3.(.cXlXlXlXcXfXC.wXlXuXaXD. .Y.+.",
"cXcXlX5.> + .   l 8 6 fXcXcX#X&X&X] c.1.K.cXzXlXzXlX#XeXaXeXaX XV h.cXA.",
"cX{.f . + > 8 ' 6., . D.zXcXL.r.OXH.W.;.C.cXcXcXcX+XqXaXwX<Xy.{.-XxXcXJ.",
"eX8 $ 7 z ' k H , X - } L.5X5X:XR.+X/.M.J.L.kXgX#X+XcX2X,X+XN.cXcXdX0X0X",
"kXz 8 ' k t e e - $ $ * 3 g 7.7.3 J cX<X1XH.S.L.%XeXwX:X,XkX<X;XK.R.4XcX",
"cXe.X : , d w X . y l.J H S 2 b V % e.dX<X#X$XpXlXuXu.L.tXtX9XZ.k.cXzXcX",
"cXdX3 : w w g J n.0XcXcXzXcXOXE _ L 1 9.pXaXlXlXoXG.;X<XlXzX-XJ.x.xXcXcX",
",XzX` * S |.zXcXcXlXpXlXaXlXuXf.I E z.eXaXlXaX$X@X:X>XD.=X=X=X>X@.E.5XdX",
"zX4Xq # OXcXcXlXkXpXpXpXpXcX2X[  .2XcXcXaX+X{ q | =XF F R { cX5X#.T.T.E.",
"sXF   k cXlXkXlXlXlXlXgXyX0XG.u.pXiXP.9.| V c c v 2 2 x 1 V cXxX+.#.T.E.",
"0X|.q.G.cXkXtX0XfXfX0X0XtX0XyXzXrX<X6.q N Z T U C m C M B 1 B.cX:Xo.@.A.",
"cXcXcXdXcXcXjX,XtXkXgXlXcXlXlXlXlXcXlXG./ O.O.O.) M C Y L x P cXcX:X+.Y.",
"=X} K K F.cXpXtXzXcXlXlXkXkXkXkXkXpXkXeXC.| ~ O.) P I Y M N M xXcXcX5X<X",
"z.% , = 9 rXcXkXtXlXcXkXlXlXlXkXkXkXpXpXaXr.T E ~ _ _ V b N n tXcXcXcXcX",
",Xh 4 4 g L.zXlXkX0XfXcXzXlXlXlXlXkXkXeXaXlXz.W d._ ! U I L m W.[.'.'.'.",
"6X5.* h H K rXzXcXlXtXrXkXcXzXlXkXkXkXeXuXaXuXz.~ P U I ) P m -.).!.<.!.",
"8XpXf = 5 = n.cXjXcXlXfX+X|.0XyXpXkXlXpXiXpXlXiXOX9.N E Y x m !.).~.~.~.",
"Q.6X=X0.y # y kXrXzXlXlXkXG.9XjX<X0XrX@XlXcXpX#X$X$X{ n x m &._.~.~.~.~.",
"2.2.~.cXyX0.9 n.cX2XcXkXlXkX,XkXcXcXq.e.' J H t 9 s J &.( !.`.~.~.~.~.~.",
"!.~.2.Q.7X8X-XH.rXtXkXlXkXaX-XK 7.4.; u - o < 9 9 < , ).[._.~.~.~.~.~.~.",
"~.~.~.!.<.1.~.Q.*XkXtXzXlXpXcXn.X - i i p 6 r p i i ; $.`.~.~.~.~.~.~.~.",
"~.~.~.~.~.~.).3.,.9XlXrXcXkXaXcXG ; r p p 6 7 p p i r 4 <.`.~.~.~.~.~.~.",
"~.~.~.~.~.~.~.~.!./.cXfX0XcXcXzXt < r p 6 $.G O p i r ; a )._.~.~.~.~.~.",
"1.3.2.2.1.1.2.).~.<.-XcX;X1XcX4.- t t 6 t ).<.e ; i r t ; G ).3.3.!.~.~."
};
